 <svg
      version="1.0"
      xmlns="http://www.w3.org/2000/svg"
      width="500.000000pt"
      height="500.000000pt"
      viewBox="0 0 500.000000 500.000000"
      preserveAspectRatio="xMidYMid meet"
    >
      <rect
        x="0"
        y="0"
        width="100%"
        height="100%"
        fill="#00FF88"
        rx="80"
        ry="80"
      />
      <g
        transform="translate(0.000000,500.000000) scale(0.100000,-0.100000)"
        fill="#000000"
        stroke="none"
      >
        <path
          d="M1909 4335 c-193 -48 -453 -200 -659 -385 -278 -250 -513 -647 -514
-870 -1 -124 50 -193 188 -252 143 -61 206 -138 214 -262 9 -137 -49 -215
-213 -291 -153 -71 -210 -164 -186 -308 50 -302 327 -704 658 -953 164 -123
375 -234 514 -270 80 -20 155 -13 220 23 59 32 91 76 122 170 33 96 55 132
102 165 112 77 257 54 337 -53 10 -13 32 -62 49 -109 36 -101 69 -146 134
-180 129 -66 340 -5 618 178 387 254 690 652 763 1002 22 110 4 193 -59 258
-18 19 -78 56 -133 83 -150 72 -203 143 -204 270 0 50 6 77 26 117 34 68 80
107 189 157 150 70 191 133 183 279 -8 123 -64 263 -183 455 -171 274 -473
547 -760 686 -313 152 -495 123 -565 -91 -31 -94 -54 -137 -95 -179 -85 -84
-212 -87 -305 -7 -46 38 -67 76 -99 174 -30 91 -68 140 -133 172 -67 32 -137
39 -209 21z m648 -576 c38 -14 71 -46 95 -93 23 -44 108 -268 179 -470 57
-163 98 -231 165 -273 49 -31 87 -45 434 -164 196 -68 240 -94 266 -156 31
-74 8 -167 -52 -208 -30 -20 -128 -58 -404 -155 -80 -28 -165 -59 -190 -67
-27 -10 -65 -37 -96 -67 -42 -43 -58 -69 -92 -159 -23 -59 -42 -112 -42 -117
0 -5 -36 -107 -80 -227 -85 -230 -108 -270 -177 -299 -83 -36 -185 2 -228 86
-13 26 -144 385 -165 455 -26 85 -72 189 -101 232 -41 59 -84 85 -219 131
-288 99 -466 164 -494 182 -40 24 -65 67 -72 123 -8 59 22 125 75 161 21 15
148 64 282 110 333 115 326 112 371 145 70 52 122 145 171 306 21 70 134 370
154 408 56 109 132 150 220 116z"
        />
      </g>
    </svg>